<?xml version="1.0" encoding="utf-8"?>
<!-- Generator: Adobe Illustrator 25.2.1, SVG Export Plug-In . SVG Version: 6.00 Build 0)  -->
<svg version="1.1" id="圖層_1" xmlns="http://www.w3.org/2000/svg" xmlns:xlink="http://www.w3.org/1999/xlink" x="0px" y="0px"
	 viewBox="0 0 595.3 841.9" style="enable-background:new 0 0 595.3 841.9;" xml:space="preserve">
<style type="text/css">
	.st0{fill:none;stroke:#070001;stroke-width:0.25;stroke-miterlimit:10;}
</style>
<path class="st0" d="M227.1,484.5V357c0-3.9,3.2-7.1,7.1-7.1h127.5c3.9,0,7.1,3.2,7.1,7.1v127.6c0,3.9-3.2,7.1-7.1,7.1H234.1
	C230.3,491.6,227.1,488.4,227.1,484.5z"/>
<g>
	<path d="M249.1,409.7c0.3-0.7,0.5-1.5,0.6-2.2v-7.7c0.2-0.7,0.5-0.8,1-0.7l0.1,0l0.1,0c0.7-0.1,1.1,0.1,1.3,0.9v5.3
		c-0.3,0.8-0.6,0.8-0.7,0.7c-0.3,0-0.9,0.1-0.9,1.3v2.8c0,0.8,0.5,1.3,1.3,1.3c2.5-0.1,4.2-1.5,4.7-4.4l0-7.2
		c-0.1-1.8-0.6-3.2-1.5-4.3l0,0c-0.6-0.7-1.4-1.1-2.3-1.2c-1.9-0.4-3.6-0.3-5,0.3c-1,0.5-1.7,1.2-1.9,1.9c-0.3,0.6-0.5,1.4-0.5,2.2
		l0,7c-0.1,0.5-0.2,0.9-0.5,1c0,0-0.2,0.1-0.6,0l-0.1,0l-0.1,0c-0.6,0.1-1,0-1.1-0.9v-6.2c0.2-0.5,0.5-0.6,0.9-0.6
		c0.3,0,0.9-0.1,0.9-1.3V395c0-0.8-0.5-1.3-1.2-1.3c-2.3-0.2-3.9,0.7-4.8,2.7c-0.3,0.6-0.4,1.3-0.5,2.2v8.5c0.1,2.5,1.4,4.1,3.9,4.5
		l3.6,0C247.2,411.6,248.3,410.9,249.1,409.7z"/>
	<path d="M250.4,426.5l0.1-0.1c1.3-1,1.9-2.2,2-3.8v-5c0-0.5-0.1-0.9-0.3-1.4l0,0c-0.6-1.7-1.9-2.6-3.7-2.6c-0.8,0-1.3,0.5-1.3,1.3
		v2c-0.2-2.6-1.8-3.5-3.1-3.7c-1.8-0.1-3,0-3.8,0.3c-1.3,0.5-2,1.5-2.2,3.1l0,4.5c0.1,0.4,0.2,0.9,0.6,1.4c0,0,0,0,0.1,0.1
		c-0.3,0.1-0.6,0.4-0.6,1.2v2c0,0.8,0.5,1.3,1.3,1.3l8.3,0C248.8,426.9,249.6,426.7,250.4,426.5z M243.1,417.7c0.2,0,0.5,0,0.7,0.5
		v4.1c0,0.1,0,0.1,0,0.1c0,0,0,0,0,0c-1.7-0.4-1.6-1.1-1.5-1.5v-2.7c0.2-0.6,0.5-0.6,0.7-0.5L243.1,417.7L243.1,417.7z M248,418.2
		c0.5,0.2,0.6,0.5,0.6,1.1l0,2.1c-0.1,0.7-0.5,1-1.2,1.1c-0.1,0-0.1,0-0.1,0c0,0,0,0,0-0.1l0-5C247.4,417.9,247.8,418.1,248,418.2z"
		/>
	<path d="M252.5,441.4c0-1-0.4-1.8-1-2.4c-0.3-0.3-0.3-0.4,0-0.8c0.5-0.6,0.8-1.2,1-1.7c0.3-1.4,0-2.5-0.7-3.5l0,0c0,0,0,0,0,0
		c0.4-0.1,0.8-0.5,0.8-1.2v-2c0-0.8-0.5-1.3-1.3-1.3h-11.7c-0.8,0-1.3,0.5-1.3,1.3v2c0,0.8,0.5,1.3,1.3,1.3h8.2
		c0.1,0,0.2,0.1,0.2,0.1c0.1,0.1,0.3,0.5,0.1,1.6c-0.1,0.1-0.2,0.3-0.3,0.3h-8.2c-0.8,0-1.3,0.5-1.3,1.3v2.1c0,0.8,0.5,1.3,1.3,1.3
		l7.8,0c0.2,0,0.4,0,0.6,0.1c0.1,0.1,0.2,0.4,0.3,0.8c0,0.3,0,0.6-0.1,0.7c-0.2,0.2-0.5,0.3-1,0.2h-7.5c-0.8,0-1.3,0.5-1.3,1.3v2.2
		c0,0.8,0.5,1.3,1.3,1.3l9.5,0C251.7,445.5,252.9,443.9,252.5,441.4z"/>
	<path d="M252.5,458.2l0-3.9c0-0.8-0.2-1.4-0.5-1.8c0.2-0.2,0.4-0.6,0.4-1.1v-2.2c0-0.8-0.5-1.3-1.3-1.3h-16.6
		c-0.8,0-1.3,0.5-1.3,1.3v2.2c0,0.8,0.5,1.3,1.3,1.3h4c-0.2,0.4-0.3,0.9-0.3,1.5l0,3.3c0,0.7,0.2,1.4,0.5,2.2l0.1,0.1
		c0.5,0.6,1.1,1.1,2,1.4c0.7,0.3,1.4,0.4,2.2,0.5h4.8C250.4,461.6,252,460.4,252.5,458.2z M242.7,455.9l0-2.3
		c0.1-0.5,0.3-0.7,0.7-0.9l3.6,0c0.7-0.1,1.1,0.2,1.3,0.8v2.5c-0.2,0.6-0.5,0.9-1,0.9l-3.4,0C243.3,457,242.8,456.9,242.7,455.9z"/>
	<path d="M256.5,467.3V465c0-0.8-0.5-1.2-1.3-1.2h-15.8c-0.8,0-1.3,0.5-1.3,1.3v2.2c0,0.8,0.5,1.3,1.3,1.3h15.8
		C256.1,468.6,256.5,468.1,256.5,467.3z"/>
	<path d="M243.7,483.4v-0.5c0.1,0.4,0.3,0.8,0.6,1.1l0.1,0.1c0.6,0.4,1.3,0.6,2.3,0.7l2.5,0c2.1-0.4,3.3-1.8,3.3-3.9l0-5.6
		c0-0.5-0.2-1.1-0.4-1.7l0-0.1c-1-1.7-2.4-2.5-4.2-2.6l-5.1,0c-1.2,0.1-2.2,0.4-3,0.9c-0.8,0.7-1.3,1.6-1.5,2.9l0,6
		c0,0.6,0.2,1.3,0.5,2c0.8,1.2,2,1.9,3.7,2.1C243.2,484.6,243.7,484.1,243.7,483.4z M247.9,475.3c0.3,0,0.5,0,0.6,0.5l0,3.3
		c0,0.2,0,0.5-0.1,0.7c-0.1,0.1-0.2,0.2-0.5,0.2c-0.2,0-0.5,0.1-0.6-0.1c-0.1-0.1-0.2-0.4-0.2-0.8v-3.3c0.2-0.6,0.4-0.5,0.6-0.5
		L247.9,475.3L247.9,475.3z M243,479.9c-0.7-0.1-0.9-0.4-0.8-1.2l0-2.6c0-0.3,0.1-0.6,0.4-0.8c0.2-0.1,0.4-0.1,0.8-0.1
		c0.2,0,0.3,0,0.3,0.1l0,5.1C243.5,480,243.2,479.9,243,479.9z"/>
</g>
<g>
	<path d="M347.4,433.7c-0.3,0.7-0.5,1.5-0.6,2.2v7.7c-0.2,0.7-0.5,0.8-1,0.7l-0.1,0l-0.1,0c-0.7,0.1-1.1-0.1-1.3-0.9v-5.3
		c0.3-0.8,0.6-0.8,0.7-0.7c0.3,0,0.9-0.1,0.9-1.3v-2.8c0-0.8-0.5-1.3-1.3-1.3c-2.5,0.1-4.2,1.5-4.7,4.4l0,7.2
		c0.1,1.8,0.6,3.2,1.5,4.3l0,0c0.6,0.7,1.4,1.1,2.3,1.2c1.9,0.4,3.6,0.3,5-0.3c1-0.5,1.7-1.2,1.9-1.9c0.3-0.6,0.5-1.4,0.5-2.2l0-7
		c0.1-0.5,0.2-0.9,0.5-1c0,0,0.2-0.1,0.6,0l0.1,0l0.1,0c0.6-0.1,1,0,1.1,0.9v6.2c-0.2,0.5-0.5,0.6-0.9,0.6c-0.3,0-0.9,0.1-0.9,1.3
		v2.7c0,0.8,0.5,1.3,1.2,1.3c2.3,0.2,3.9-0.7,4.8-2.7c0.3-0.6,0.4-1.3,0.5-2.2v-8.5c-0.1-2.5-1.4-4.1-3.9-4.5l-3.6,0
		C349.2,431.8,348.1,432.5,347.4,433.7z"/>
	<path d="M346.1,416.9L346,417c-1.3,1-1.9,2.2-2,3.8v5c0,0.5,0.1,0.9,0.3,1.4l0,0c0.6,1.7,1.9,2.6,3.7,2.6c0.8,0,1.3-0.5,1.3-1.3v-2
		c0.2,2.6,1.8,3.5,3.1,3.7c1.8,0.1,3,0,3.8-0.3c1.3-0.5,2-1.5,2.2-3.1l0-4.5c-0.1-0.4-0.2-0.9-0.6-1.4c0,0,0,0-0.1-0.1
		c0.3-0.1,0.6-0.4,0.6-1.2v-2c0-0.8-0.5-1.3-1.3-1.3l-8.3,0C347.7,416.6,346.8,416.7,346.1,416.9z M353.4,425.7
		c-0.2,0-0.5,0-0.7-0.5v-4.1c0-0.1,0-0.1,0-0.1c0,0,0,0,0,0c1.7,0.4,1.6,1.1,1.5,1.5v2.7c-0.2,0.6-0.5,0.6-0.7,0.5L353.4,425.7
		L353.4,425.7z M348.4,425.3c-0.5-0.2-0.6-0.5-0.6-1.1l0-2.1c0.1-0.7,0.5-1,1.2-1.1c0.1,0,0.1,0,0.1,0c0,0,0,0,0,0.1l0,5
		C349.1,425.5,348.7,425.3,348.4,425.3z"/>
	<path d="M344,402c0,1,0.4,1.8,1,2.4c0.3,0.3,0.3,0.4,0,0.8c-0.5,0.6-0.8,1.2-1,1.7c-0.3,1.4,0,2.5,0.7,3.5l0,0c0,0,0,0,0,0
		c-0.4,0.1-0.8,0.5-0.8,1.2v2c0,0.8,0.5,1.3,1.3,1.3H357c0.8,0,1.3-0.5,1.3-1.3v-2c0-0.8-0.5-1.3-1.3-1.3h-8.2
		c-0.1,0-0.2-0.1-0.2-0.1c-0.1-0.1-0.3-0.5-0.1-1.6c0.1-0.1,0.2-0.3,0.3-0.3h8.2c0.8,0,1.3-0.5,1.3-1.3v-2.1c0-0.8-0.5-1.3-1.3-1.3
		l-7.8,0c-0.2,0-0.4,0-0.6-0.1c-0.1-0.1-0.2-0.4-0.3-0.8c0-0.3,0-0.6,0.1-0.7c0.2-0.2,0.5-0.3,1-0.2h7.5c0.8,0,1.3-0.5,1.3-1.3v-2.2
		c0-0.8-0.5-1.3-1.3-1.3l-9.5,0C344.8,397.9,343.6,399.5,344,402z"/>
	<path d="M344,385.3l0,3.9c0,0.8,0.2,1.4,0.5,1.8c-0.2,0.2-0.4,0.6-0.4,1.1v2.2c0,0.8,0.5,1.3,1.3,1.3H362c0.8,0,1.3-0.5,1.3-1.3
		V392c0-0.8-0.5-1.3-1.3-1.3h-4c0.2-0.4,0.3-0.9,0.3-1.5l0-3.3c0-0.7-0.2-1.4-0.5-2.2l-0.1-0.1c-0.5-0.6-1.1-1.1-2-1.4
		c-0.7-0.3-1.4-0.4-2.2-0.5h-4.8C346.1,381.8,344.5,383,344,385.3z M353.8,387.6l0,2.3c-0.1,0.5-0.3,0.7-0.7,0.9l-3.6,0
		c-0.7,0.1-1.1-0.2-1.3-0.8v-2.5c0.2-0.6,0.5-0.9,1-0.9l3.4,0C353.2,386.5,353.7,386.5,353.8,387.6z"/>
	<path d="M339.9,376.1v2.3c0,0.8,0.5,1.2,1.3,1.2H357c0.8,0,1.3-0.5,1.3-1.3v-2.2c0-0.8-0.5-1.3-1.3-1.3h-15.8
		C340.4,374.9,339.9,375.4,339.9,376.1z"/>
	<path d="M352.8,360.1v0.5c-0.1-0.4-0.3-0.8-0.6-1.1l-0.1-0.1c-0.6-0.4-1.3-0.6-2.3-0.7l-2.5,0c-2.1,0.4-3.3,1.8-3.3,3.9l0,5.6
		c0,0.5,0.2,1.1,0.4,1.7l0,0.1c1,1.7,2.4,2.5,4.2,2.6l5.1,0c1.2-0.1,2.2-0.4,3-0.9c0.8-0.7,1.3-1.6,1.5-2.9l0-6c0-0.6-0.2-1.3-0.5-2
		c-0.8-1.2-2-1.9-3.7-2.1C353.2,358.8,352.8,359.3,352.8,360.1z M348.6,368.2c-0.3,0-0.5,0-0.6-0.5l0-3.3c0-0.2,0-0.5,0.1-0.7
		c0.1-0.1,0.2-0.2,0.5-0.2c0.2,0,0.5-0.1,0.6,0.1c0.1,0.1,0.2,0.4,0.2,0.8v3.3c-0.2,0.6-0.4,0.5-0.6,0.5L348.6,368.2L348.6,368.2z
		 M353.4,363.5c0.7,0.1,0.9,0.4,0.8,1.2l0,2.6c0,0.3-0.1,0.6-0.4,0.8c-0.2,0.1-0.4,0.1-0.8,0.1c-0.2,0-0.3,0-0.3-0.1l0-5.1
		C353,363.4,353.2,363.5,353.4,363.5z"/>
</g>
</svg>
